# xmcd
#
# Track frame offsets:
#	150
#	15845
#	33333
#	57328
#	75965
#	89865
#	111420
#	130233
#	146503
#	164267
#	184350
#
# Disc length: 2854 seconds
#
# Revision: 0
# Processed by: cddbd v1.5.2PL0 Copyright (c) Steve Scherf et al.
# Submitted via: dBpowerAMP V4.0
#
DISCID=8e0b240b
DTITLE=Bruce Willis - The Return Of Bruno
DYEAR=1900
DGENRE=Blues
TTITLE0=Comin' Right Up
TTITLE1=Respect Yourself
TTITLE2=Down In Hollywood
TTITLE3=Youngblood
TTITLE4=Under The Boardwalk
TTITLE5=Secret Agent Man/James Bond Is Back
TTITLE6=Jackpot (Bruno's Bop)
TTITLE7=Fun Time
TTITLE8=Lose Myself
TTITLE9=Flirting With Disaster
TTITLE10=Respect Yourself (Extended 12" Version)
EXTD=
EXTT0=
EXTT1=
EXTT2=
EXTT3=
EXTT4=
EXTT5=
EXTT6=
EXTT7=
EXTT8=
EXTT9=
EXTT10=
PLAYORDER=
